<mxfile host="app.diagrams.net" modified="2023-01-30T07:11:52.366Z" agent="5.0 (Macintosh; Intel Mac OS X 10_15_7) AppleWebKit/537.36 (KHTML, like Gecko) Chrome/108.0.0.0 Safari/537.36" version="20.7.4" etag="BO3uq-kUA-d004km01CZ" type="github">
  <diagram id="mkWJEXeTlFygvjjcprAR" name="Page-1">
    <mxGraphModel dx="989" dy="549" grid="1" gridSize="10" guides="1" tooltips="1" connect="1" arrows="1" fold="1" page="1" pageScale="1" pageWidth="827" pageHeight="1169" math="0" shadow="0">
      <root>
        <mxCell id="0" />
        <mxCell id="1" parent="0" />
        <mxCell id="Z7z3Dmf8v_Bu41zN9ljn-6" style="edgeStyle=orthogonalEdgeStyle;rounded=0;orthogonalLoop=1;jettySize=auto;html=1;exitX=0.5;exitY=0;exitDx=0;exitDy=0;entryX=0.5;entryY=1;entryDx=0;entryDy=0;" edge="1" parent="1" source="Z7z3Dmf8v_Bu41zN9ljn-1" target="Z7z3Dmf8v_Bu41zN9ljn-2">
          <mxGeometry relative="1" as="geometry" />
        </mxCell>
        <mxCell id="Z7z3Dmf8v_Bu41zN9ljn-1" value="Features" style="rounded=0;whiteSpace=wrap;html=1;strokeWidth=3;" vertex="1" parent="1">
          <mxGeometry x="280" y="520" width="120" height="60" as="geometry" />
        </mxCell>
        <mxCell id="Z7z3Dmf8v_Bu41zN9ljn-7" style="edgeStyle=orthogonalEdgeStyle;rounded=0;orthogonalLoop=1;jettySize=auto;html=1;exitX=0.5;exitY=0;exitDx=0;exitDy=0;entryX=0.5;entryY=1;entryDx=0;entryDy=0;" edge="1" parent="1" source="Z7z3Dmf8v_Bu41zN9ljn-2" target="Z7z3Dmf8v_Bu41zN9ljn-3">
          <mxGeometry relative="1" as="geometry" />
        </mxCell>
        <mxCell id="Z7z3Dmf8v_Bu41zN9ljn-2" value="Feature Column" style="rounded=0;whiteSpace=wrap;html=1;strokeWidth=3;" vertex="1" parent="1">
          <mxGeometry x="280" y="440" width="120" height="60" as="geometry" />
        </mxCell>
        <mxCell id="Z7z3Dmf8v_Bu41zN9ljn-8" style="edgeStyle=orthogonalEdgeStyle;rounded=0;orthogonalLoop=1;jettySize=auto;html=1;exitX=0.5;exitY=0;exitDx=0;exitDy=0;" edge="1" parent="1" source="Z7z3Dmf8v_Bu41zN9ljn-3" target="Z7z3Dmf8v_Bu41zN9ljn-4">
          <mxGeometry relative="1" as="geometry" />
        </mxCell>
        <mxCell id="Z7z3Dmf8v_Bu41zN9ljn-3" value="Feature Embedding" style="rounded=0;whiteSpace=wrap;html=1;strokeWidth=3;" vertex="1" parent="1">
          <mxGeometry x="280" y="360" width="120" height="60" as="geometry" />
        </mxCell>
        <mxCell id="Z7z3Dmf8v_Bu41zN9ljn-9" style="edgeStyle=orthogonalEdgeStyle;rounded=0;orthogonalLoop=1;jettySize=auto;html=1;exitX=0.5;exitY=0;exitDx=0;exitDy=0;entryX=0.5;entryY=1;entryDx=0;entryDy=0;" edge="1" parent="1" source="Z7z3Dmf8v_Bu41zN9ljn-4" target="Z7z3Dmf8v_Bu41zN9ljn-5">
          <mxGeometry relative="1" as="geometry" />
        </mxCell>
        <mxCell id="Z7z3Dmf8v_Bu41zN9ljn-4" value="Modeling" style="rounded=0;whiteSpace=wrap;html=1;strokeWidth=3;" vertex="1" parent="1">
          <mxGeometry x="280" y="280" width="120" height="60" as="geometry" />
        </mxCell>
        <mxCell id="Z7z3Dmf8v_Bu41zN9ljn-5" value="Target" style="rounded=0;whiteSpace=wrap;html=1;strokeWidth=3;" vertex="1" parent="1">
          <mxGeometry x="280" y="200" width="120" height="60" as="geometry" />
        </mxCell>
      </root>
    </mxGraphModel>
  </diagram>
</mxfile>
